<svg id="visual" viewBox="0 0 900 600" width="900" height="600" xmlns="http://www.w3.org/2000/svg" xmlns:xlink="http://www.w3.org/1999/xlink" version="1.1"><rect x="0" y="0" width="900" height="600" fill="#ffffff"></rect><path d="M577 0L573.7 14.3C570.3 28.7 563.7 57.3 555.5 85.8C547.3 114.3 537.7 142.7 504.7 171.2C471.7 199.7 415.3 228.3 415.8 257C416.3 285.7 473.7 314.3 474.7 343C475.7 371.7 420.3 400.3 409.5 428.8C398.7 457.3 432.3 485.7 429.5 514.2C426.7 542.7 387.3 571.3 367.7 585.7L348 600L0 600L0 585.7C0 571.3 0 542.7 0 514.2C0 485.7 0 457.3 0 428.8C0 400.3 0 371.7 0 343C0 314.3 0 285.7 0 257C0 228.3 0 199.7 0 171.2C0 142.7 0 114.3 0 85.8C0 57.3 0 28.7 0 14.3L0 0Z" fill="#5865F2" stroke-linecap="round" stroke-linejoin="miter"></path></svg>